<?xml version="1.0" standalone="no"?>
<!DOCTYPE svg PUBLIC "-//W3C//DTD SVG 20010904//EN"
 "http://www.w3.org/TR/2001/REC-SVG-20010904/DTD/svg10.dtd">
<svg version="1.0" xmlns="http://www.w3.org/2000/svg"
 width="267.000000pt" height="126.000000pt" viewBox="0 0 267.000000 126.000000"
 preserveAspectRatio="xMidYMid meet">

<g transform="translate(0.000000,126.000000) scale(0.100000,-0.100000)"
fill="#C62828" stroke="none">
<path d="M80 1113 c-19 -53 -36 -101 -38 -105 -2 -4 352 -8 786 -8 l790 0 30
25 c19 16 38 50 56 99 14 41 26 77 26 80 0 3 -364 6 -808 6 l-808 0 -34 -97z"/>
<path d="M1798 1106 l-37 -106 149 0 148 0 7 30 c10 44 22 45 65 6 39 -35 42
-36 125 -36 47 0 85 -3 85 -7 0 -5 -19 -21 -42 -37 -40 -29 -40 -30 -21 -45
10 -9 39 -33 64 -54 37 -33 40 -38 19 -33 -14 3 -60 11 -103 18 l-78 12 -80
-80 -80 -80 28 -165 28 -164 141 -3 c195 -4 189 -11 140 191 -21 83 -40 157
-43 164 -2 7 12 19 33 28 93 39 172 135 199 243 19 72 14 110 -21 151 -50 60
-79 65 -399 69 l-290 3 -37 -105z"/>
<path d="M820 949 c443 -3 873 -11 955 -17 258 -19 247 -19 256 6 l8 22 -1012
-2 -1012 -2 805 -7z"/>
<path d="M186 643 c-53 -148 -96 -271 -96 -275 0 -5 60 -8 134 -8 126 0 137 2
161 23 19 17 46 81 110 266 47 134 85 248 85 252 0 5 -67 9 -149 9 l-148 0
-97 -267z"/>
<path d="M842 884 c-24 -60 -182 -508 -182 -516 0 -4 252 -8 560 -8 l560 0 30
28 c25 22 46 70 111 246 43 120 78 221 76 223 -5 4 -269 34 -272 31 -1 -2 -29
-77 -61 -168 l-59 -165 -283 -3 c-155 -1 -282 1 -282 6 0 4 9 36 21 70 l21 62
171 0 c217 0 221 2 266 121 17 45 29 84 26 88 -3 3 -160 7 -349 9 l-343 4 -11
-28z"/>
<path d="M1061 227 c-58 -29 -43 -117 19 -117 55 0 83 83 38 114 -27 19 -27
19 -57 3z m47 -45 c4 -23 -13 -52 -29 -52 -18 0 -30 39 -19 61 14 26 44 21 48
-9z"/>
<path d="M1693 232 c-13 -2 -30 -13 -38 -25 -32 -46 -8 -97 46 -97 33 0 40 17
8 22 -53 8 -49 70 5 76 27 3 35 17 14 24 -7 2 -23 2 -35 0z"/>
<path d="M90 170 l0 -60 35 0 c37 0 49 16 15 22 -27 4 -27 22 0 26 26 4 26 32
0 32 -11 0 -20 5 -20 10 0 6 11 10 25 10 14 0 25 5 25 10 0 6 -18 10 -40 10
l-40 0 0 -60z"/>
<path d="M190 211 c-7 -15 -6 -23 6 -35 8 -9 20 -16 25 -16 5 0 9 -7 9 -16 0
-12 -6 -15 -25 -10 -18 5 -25 2 -25 -9 0 -18 50 -21 68 -3 18 18 14 46 -8 58
-11 6 -20 15 -20 20 0 6 9 10 20 10 11 0 20 5 20 10 0 19 -59 11 -70 -9z"/>
<path d="M280 220 c0 -5 7 -10 16 -10 13 0 15 -8 9 -50 -6 -40 -4 -50 8 -50
10 0 17 16 21 50 5 34 11 50 21 50 8 0 15 5 15 10 0 6 -20 10 -45 10 -25 0
-45 -4 -45 -10z"/>
<path d="M386 214 c-12 -30 -7 -106 7 -102 6 3 13 14 15 26 5 30 20 28 28 -3
3 -14 13 -25 21 -25 10 0 12 6 8 23 -9 29 -9 29 -1 50 14 29 -1 47 -38 47 -22
0 -36 -6 -40 -16z m54 -19 c0 -8 -7 -15 -15 -15 -8 0 -15 7 -15 15 0 8 7 15
15 15 8 0 15 -7 15 -15z"/>
<path d="M490 186 c0 -24 -3 -51 -6 -60 -5 -13 2 -16 35 -16 43 0 57 16 19 22
-32 5 -35 28 -4 28 16 0 26 6 26 15 0 8 -9 15 -20 15 -11 0 -20 5 -20 10 0 6
11 10 25 10 14 0 25 5 25 10 0 6 -18 10 -40 10 l-40 0 0 -44z"/>
<path d="M586 193 c-12 -78 -10 -83 35 -83 28 0 39 4 37 12 -3 7 -13 13 -24
13 -16 0 -19 7 -17 48 2 58 -21 66 -31 10z"/>
<path d="M680 208 c0 -13 -3 -40 -6 -60 l-7 -38 43 0 c29 0 40 4 38 12 -3 7
-13 13 -24 13 -16 0 -19 6 -16 48 3 38 1 47 -12 47 -10 0 -16 -9 -16 -22z"/>
<path d="M781 179 c-25 -61 -26 -69 -6 -69 8 0 15 7 15 15 0 8 9 15 19 15 10
0 21 -7 25 -15 3 -8 12 -15 20 -15 15 0 14 3 -5 83 -14 55 -41 50 -68 -14z
m36 -11 c-3 -7 -5 -2 -5 12 0 14 2 19 5 13 2 -7 2 -19 0 -25z"/>
<path d="M926 199 c-11 -55 -7 -89 9 -89 9 0 15 9 15 25 0 14 4 25 10 25 5 0
12 -11 16 -25 12 -48 30 -28 30 33 l-1 57 -36 3 c-34 3 -37 1 -43 -29z m59 1
c3 -6 -1 -13 -10 -16 -19 -8 -30 0 -20 15 8 14 22 14 30 1z"/>
<path d="M1186 208 c-3 -13 -6 -34 -6 -46 0 -15 -7 -26 -20 -29 -28 -7 -25
-23 4 -23 31 0 39 12 46 72 5 34 3 48 -6 48 -6 0 -14 -10 -18 -22z"/>
<path d="M1245 178 c-11 -29 -21 -56 -23 -60 -2 -4 3 -8 11 -8 8 0 17 7 21 15
7 19 35 19 42 0 4 -8 12 -15 20 -15 10 0 12 9 7 33 -13 68 -20 82 -39 85 -16
2 -24 -8 -39 -50z m45 3 c0 -6 -4 -13 -10 -16 -5 -3 -10 1 -10 9 0 9 5 16 10
16 6 0 10 -4 10 -9z"/>
<path d="M1390 201 c0 -16 -3 -43 -6 -60 -6 -30 -5 -31 25 -31 67 0 106 50 76
96 -12 19 -24 24 -55 24 -37 0 -40 -2 -40 -29z m70 -6 c10 -12 9 -20 -4 -40
-9 -14 -23 -25 -31 -25 -17 0 -18 4 -9 49 7 33 24 40 44 16z"/>
<path d="M1516 208 c-3 -13 -6 -40 -6 -60 0 -37 1 -38 34 -38 19 0 38 5 41 10
4 6 -5 10 -19 10 -32 0 -35 27 -3 32 27 4 26 22 -3 26 -29 5 -25 22 5 22 14 0
25 5 25 10 0 6 -15 10 -34 10 -26 0 -35 -5 -40 -22z"/>
<path d="M1755 196 c-9 -44 -4 -66 16 -79 24 -15 68 0 73 26 15 73 15 87 2 87
-9 0 -17 -18 -23 -47 -5 -32 -13 -48 -23 -48 -11 0 -16 13 -18 48 -4 55 -18
62 -27 13z"/>
<path d="M1880 175 c-23 -56 -20 -86 4 -52 16 21 42 22 50 2 3 -8 11 -15 17
-15 11 0 6 71 -8 106 -12 32 -41 14 -63 -41z m43 10 c4 -8 2 -17 -3 -20 -6 -4
-10 3 -10 14 0 25 6 27 13 6z"/>
<path d="M1986 214 c-10 -26 -7 -79 6 -92 18 -18 53 -15 71 6 18 20 24 102 7
102 -5 0 -12 -17 -15 -37 -10 -56 -14 -65 -28 -61 -6 3 -13 25 -15 51 -3 47
-15 61 -26 31z"/>
<path d="M2100 220 c0 -5 7 -10 16 -10 14 0 16 -8 10 -50 -5 -39 -4 -50 7 -50
10 0 17 17 21 50 5 34 11 50 21 50 8 0 15 5 15 10 0 6 -20 10 -45 10 -25 0
-45 -4 -45 -10z"/>
<path d="M2206 208 c-3 -13 -6 -40 -6 -60 0 -37 1 -38 35 -38 19 0 35 5 35 10
0 6 -9 10 -20 10 -17 0 -20 7 -20 50 0 52 -13 67 -24 28z"/>
<path d="M2310 184 c-11 -25 -20 -52 -20 -60 0 -19 19 -18 26 1 8 20 44 20 44
0 0 -8 7 -15 15 -15 18 0 18 4 3 69 -15 68 -41 70 -68 5z m36 -21 c-11 -11
-19 6 -11 24 8 17 8 17 12 0 3 -10 2 -21 -1 -24z"/>
</g>
</svg>
