<?xml version="1.0" standalone="no"?>
<!DOCTYPE svg PUBLIC "-//W3C//DTD SVG 20010904//EN"
 "http://www.w3.org/TR/2001/REC-SVG-20010904/DTD/svg10.dtd">
<svg version="1.0" xmlns="http://www.w3.org/2000/svg"
 width="267.000000pt" height="126.000000pt" viewBox="0 0 267.000000 126.000000"
 preserveAspectRatio="xMidYMid meet">

<g transform="translate(0.000000,126.000000) scale(0.100000,-0.100000)"
fill="#C62828" stroke="none">
<path d="M80 1113 c-19 -53 -36 -101 -38 -105 -2 -4 352 -8 786 -8 l790 0 30
25 c19 16 38 50 56 99 14 41 26 77 26 80 0 3 -364 6 -808 6 l-808 0 -34 -97z"/>
<path d="M1798 1106 l-37 -106 149 0 148 0 7 30 c10 44 22 45 65 6 39 -35 42
-36 125 -36 47 0 85 -3 85 -7 0 -5 -19 -21 -42 -37 -40 -29 -40 -30 -21 -45
10 -9 39 -33 64 -54 37 -33 40 -38 19 -33 -14 3 -60 11 -103 18 l-78 12 -80
-80 -80 -80 28 -165 28 -164 141 -3 c195 -4 189 -11 140 191 -21 83 -40 157
-43 164 -2 7 12 19 33 28 93 39 172 135 199 243 19 72 14 110 -21 151 -50 60
-79 65 -399 69 l-290 3 -37 -105z"/>
<path d="M820 949 c443 -3 873 -11 955 -17 258 -19 247 -19 256 6 l8 22 -1012
-2 -1012 -2 805 -7z"/>
<path d="M186 643 c-53 -148 -96 -271 -96 -275 0 -5 60 -8 134 -8 126 0 137 2
161 23 19 17 46 81 110 266 47 134 85 248 85 252 0 5 -67 9 -149 9 l-148 0
-97 -267z"/>
<path d="M842 884 c-24 -60 -182 -508 -182 -516 0 -4 252 -8 560 -8 l560 0 30
28 c25 22 46 70 111 246 43 120 78 221 76 223 -5 4 -269 34 -272 31 -1 -2 -29
-77 -61 -168 l-59 -165 -283 -3 c-155 -1 -282 1 -282 6 0 4 9 36 21 70 l21 62
171 0 c217 0 221 2 266 121 17 45 29 84 26 88 -3 3 -160 7 -349 9 l-343 4 -11
-28z"/>
</g>
</svg>
